<!-- 智能教学助手2.0 - 教学场景插图库 -->
<svg xmlns="http://www.w3.org/2000/svg" style="display: none;">
  <!-- 在线课堂 -->
  <symbol id="illustration-online-class" viewBox="0 0 400 300">
    <defs>
      <linearGradient id="onlineGrad" x1="0%" y1="0%" x2="100%" y2="100%">
        <stop offset="0%" style="stop-color:#E3F2FD;stop-opacity:1" />
        <stop offset="100%" style="stop-color:#BBDEFB;stop-opacity:0.6" />
      </linearGradient>
    </defs>
    
    <!-- 背景 -->
    <rect width="400" height="300" fill="url(#onlineGrad)"/>
    
    <!-- 主屏幕 -->
    <g transform="translate(50, 30)">
      <rect x="0" y="0" width="200" height="120" rx="8" fill="#FFFFFF" stroke="#E0E0E0" stroke-width="2"/>
      <rect x="5" y="5" width="190" height="90" rx="4" fill="#F5F5F5"/>
      
      <!-- 老师视频 -->
      <rect x="10" y="10" width="80" height="60" rx="4" fill="#E3F2FD"/>
      <circle cx="50" cy="30" r="8" fill="#FFDBCB"/>
      <rect x="42" y="38" width="16" height="20" rx="8" fill="#2196F3"/>
      <text x="50" y="65" text-anchor="middle" font-size="8" fill="#666666">张老师</text>
      
      <!-- 课件内容 -->
      <rect x="100" y="10" width="95" height="80" rx="4" fill="#FFFFFF" stroke="#E0E0E0" stroke-width="1"/>
      <text x="147" y="25" text-anchor="middle" font-size="10" font-weight="bold" fill="#1976D2">数学课 - 函数</text>
      <rect x="110" y="30" width="75" height="2" rx="1" fill="#E0E0E0"/>
      <rect x="110" y="35" width="60" height="2" rx="1" fill="#E0E0E0"/>
      <rect x="110" y="40" width="70" height="2" rx="1" fill="#E0E0E0"/>
      
      <!-- 函数图像 -->
      <g transform="translate(120, 50)">
        <rect width="50" height="30" fill="#F8F9FA" stroke="#E0E0E0" stroke-width="1"/>
        <path d="M 5 25 Q 15 15 25 20 Q 35 25 45 15" stroke="#2196F3" stroke-width="2" fill="none"/>
        <circle cx="15" cy="18" r="1" fill="#2196F3"/>
        <circle cx="25" cy="20" r="1" fill="#2196F3"/>
        <circle cx="35" cy="22" r="1" fill="#2196F3"/>
      </g>
      
      <!-- 控制栏 -->
      <rect x="5" y="100" width="190" height="15" rx="2" fill="#FAFAFA"/>
      <circle cx="15" cy="107" r="3" fill="#4CAF50"/>
      <circle cx="25" cy="107" r="3" fill="#F44336"/>
      <circle cx="35" cy="107" r="3" fill="#FF9800"/>
      <text x="180" y="111" text-anchor="end" font-size="8" fill="#666666">45:32</text>
    </g>
    
    <!-- 学生视频网格 -->
    <g transform="translate(270, 30)">
      <!-- 学生1 -->
      <rect x="0" y="0" width="50" height="35" rx="4" fill="#FFFFFF" stroke="#E0E0E0" stroke-width="1"/>
      <circle cx="25" cy="15" r="6" fill="#FFDBCB"/>
      <rect x="19" y="21" width="12" height="10" rx="6" fill="#4CAF50"/>
      <text x="25" y="32" text-anchor="middle" font-size="6" fill="#666666">小明</text>
      
      <!-- 学生2 -->
      <rect x="60" y="0" width="50" height="35" rx="4" fill="#FFFFFF" stroke="#E0E0E0" stroke-width="1"/>
      <circle cx="85" cy="15" r="6" fill="#FFDBCB"/>
      <rect x="79" y="21" width="12" height="10" rx="6" fill="#2196F3"/>
      <text x="85" y="32" text-anchor="middle" font-size="6" fill="#666666">小红</text>
      
      <!-- 学生3 -->
      <rect x="0" y="45" width="50" height="35" rx="4" fill="#FFFFFF" stroke="#E0E0E0" stroke-width="1"/>
      <circle cx="25" cy="60" r="6" fill="#FFDBCB"/>
      <rect x="19" y="66" width="12" height="10" rx="6" fill="#FF9800"/>
      <text x="25" y="77" text-anchor="middle" font-size="6" fill="#666666">小李</text>
      
      <!-- 学生4 -->
      <rect x="60" y="45" width="50" height="35" rx="4" fill="#FFFFFF" stroke="#E0E0E0" stroke-width="1"/>
      <circle cx="85" cy="60" r="6" fill="#FFDBCB"/>
      <rect x="79" y="66" width="12" height="10" rx="6" fill="#9C27B0"/>
      <text x="85" y="77" text-anchor="middle" font-size="6" fill="#666666">小王</text>
    </g>
    
    <!-- 聊天区域 -->
    <g transform="translate(50, 170)">
      <rect x="0" y="0" width="300" height="80" rx="8" fill="#FFFFFF" stroke="#E0E0E0" stroke-width="1"/>
      <rect x="5" y="5" width="290" height="20" rx="4" fill="#F5F5F5"/>
      <text x="10" y="17" font-size="10" font-weight="bold" fill="#666666">课堂讨论</text>
      
      <!-- 消息1 -->
      <g transform="translate(10, 30)">
        <circle cx="8" cy="8" r="6" fill="#4CAF50"/>
        <text x="8" y="12" text-anchor="middle" font-size="8" fill="#FFFFFF">明</text>
        <rect x="20" y="2" width="120" height="12" rx="6" fill="#E8F5E8"/>
        <text x="25" y="10" font-size="8" fill="#333333">老师，这个函数的定义域是什么？</text>
      </g>
      
      <!-- 消息2 -->
      <g transform="translate(10, 50)">
        <circle cx="8" cy="8" r="6" fill="#2196F3"/>
        <text x="8" y="12" text-anchor="middle" font-size="8" fill="#FFFFFF">师</text>
        <rect x="20" y="2" width="150" height="12" rx="6" fill="#E3F2FD"/>
        <text x="25" y="10" font-size="8" fill="#333333">很好的问题！定义域是所有实数...</text>
      </g>
    </g>
    
    <!-- 装饰元素 -->
    <circle cx="30" cy="100" r="3" fill="#BBDEFB" opacity="0.6"/>
    <circle cx="370" cy="120" r="4" fill="#90CAF9" opacity="0.6"/>
    
    <!-- 文字区域 -->
    <text x="200" y="280" text-anchor="middle" font-family="-apple-system, BlinkMacSystemFont, 'Segoe UI', Roboto, sans-serif" font-size="16" font-weight="600" fill="#1976D2">在线课堂教学</text>
  </symbol>

  <!-- 作业批改 -->
  <symbol id="illustration-homework-grading" viewBox="0 0 400 300">
    <defs>
      <linearGradient id="gradingGrad" x1="0%" y1="0%" x2="100%" y2="100%">
        <stop offset="0%" style="stop-color:#FFF3E0;stop-opacity:1" />
        <stop offset="100%" style="stop-color:#FFE0B2;stop-opacity:0.6" />
      </linearGradient>
    </defs>
    
    <!-- 背景 -->
    <rect width="400" height="300" fill="url(#gradingGrad)"/>
    
    <!-- 作业本 -->
    <g transform="translate(80, 40)">
      <rect x="0" y="0" width="120" height="160" rx="8" fill="#FFFFFF" stroke="#E0E0E0" stroke-width="2"/>
      <rect x="5" y="5" width="110" height="150" rx="4" fill="#FAFAFA"/>
      
      <!-- 作业标题 -->
      <text x="60" y="25" text-anchor="middle" font-size="12" font-weight="bold" fill="#F57C00">数学作业 - 第3章</text>
      <line x1="15" y1="30" x2="105" y2="30" stroke="#E0E0E0" stroke-width="1"/>
      
      <!-- 题目1 -->
      <text x="15" y="45" font-size="10" fill="#333333">1. 计算: 2x + 3 = 11</text>
      <text x="15" y="60" font-size="10" fill="#333333">解: x = 4</text>
      <circle cx="95" cy="52" r="8" fill="#4CAF50" opacity="0.2"/>
      <text x="95" y="56" text-anchor="middle" font-size="12" font-weight="bold" fill="#4CAF50">✓</text>
      
      <!-- 题目2 -->
      <text x="15" y="80" font-size="10" fill="#333333">2. 求函数 f(x) = x² 的导数</text>
      <text x="15" y="95" font-size="10" fill="#333333">解: f'(x) = 2x</text>
      <circle cx="95" cy="87" r="8" fill="#4CAF50" opacity="0.2"/>
      <text x="95" y="91" text-anchor="middle" font-size="12" font-weight="bold" fill="#4CAF50">✓</text>
      
      <!-- 题目3 -->
      <text x="15" y="115" font-size="10" fill="#333333">3. 化简: (x+1)(x-1)</text>
      <text x="15" y="130" font-size="10" fill="#333333">解: x² + 1</text>
      <circle cx="95" cy="122" r="8" fill="#F44336" opacity="0.2"/>
      <text x="95" y="126" text-anchor="middle" font-size="12" font-weight="bold" fill="#F44336">✗</text>
      
      <!-- 批改意见 -->
      <rect x="10" y="140" width="100" height="12" rx="2" fill="#FFF3E0" stroke="#FFB74D" stroke-width="1"/>
      <text x="60" y="149" text-anchor="middle" font-size="8" fill="#F57C00">应该是 x² - 1，注意符号</text>
    </g>
    
    <!-- AI 批改助手 -->
    <g transform="translate(230, 60)">
      <rect x="0" y="0" width="140" height="120" rx="8" fill="#FFFFFF" stroke="#E0E0E0" stroke-width="2"/>
      <rect x="5" y="5" width="130" height="25" rx="4" fill="#FF9800" opacity="0.1"/>
      <text x="70" y="20" text-anchor="middle" font-size="12" font-weight="bold" fill="#F57C00">AI 智能批改</text>
      
      <!-- 批改结果 -->
      <g transform="translate(15, 35)">
        <rect x="0" y="0" width="110" height="15" rx="2" fill="#E8F5E8"/>
        <text x="5" y="10" font-size="9" fill="#2E7D32">✓ 正确率: 66.7% (2/3)</text>
        
        <rect x="0" y="20" width="110" height="15" rx="2" fill="#FFEBEE"/>
        <text x="5" y="30" font-size="9" fill="#C62828">✗ 错误: 第3题计算错误</text>
        
        <rect x="0" y="40" width="110" height="15" rx="2" fill="#FFF3E0"/>
        <text x="5" y="50" font-size="9" fill="#F57C00">💡 建议: 复习乘法公式</text>
        
        <rect x="0" y="60" width="110" height="15" rx="2" fill="#E3F2FD"/>
        <text x="5" y="70" font-size="9" fill="#1976D2">⭐ 评分: B+ (85分)</text>
      </g>
    </g>
    
    <!-- 批改工具 -->
    <g transform="translate(50, 220)">
      <!-- 红笔 -->
      <rect x="0" y="0" width="4" height="30" rx="2" fill="#F44336"/>
      <circle cx="2" cy="32" r="2" fill="#F44336"/>
      
      <!-- 绿笔 -->
      <rect x="10" y="0" width="4" height="30" rx="2" fill="#4CAF50"/>
      <circle cx="12" cy="32" r="2" fill="#4CAF50"/>
      
      <!-- 橙笔 -->
      <rect x="20" y="0" width="4" height="30" rx="2" fill="#FF9800"/>
      <circle cx="22" cy="32" r="2" fill="#FF9800"/>
    </g>
    
    <!-- 装饰元素 -->
    <circle cx="40" cy="80" r="3" fill="#FFE0B2" opacity="0.8"/>
    <circle cx="360" cy="100" r="4" fill="#FFCC80" opacity="0.8"/>
    
    <!-- 文字区域 -->
    <text x="200" y="280" text-anchor="middle" font-family="-apple-system, BlinkMacSystemFont, 'Segoe UI', Roboto, sans-serif" font-size="16" font-weight="600" fill="#F57C00">智能作业批改</text>
  </symbol>

  <!-- 考试监控 -->
  <symbol id="illustration-exam-monitoring" viewBox="0 0 400 300">
    <defs>
      <linearGradient id="examGrad" x1="0%" y1="0%" x2="100%" y2="100%">
        <stop offset="0%" style="stop-color:#F3E5F5;stop-opacity:1" />
        <stop offset="100%" style="stop-color:#E1BEE7;stop-opacity:0.6" />
      </linearGradient>
    </defs>
    
    <!-- 背景 -->
    <rect width="400" height="300" fill="url(#examGrad)"/>
    
    <!-- 监控大屏 -->
    <g transform="translate(50, 30)">
      <rect x="0" y="0" width="180" height="120" rx="8" fill="#FFFFFF" stroke="#E0E0E0" stroke-width="2"/>
      <rect x="5" y="5" width="170" height="20" rx="4" fill="#9C27B0" opacity="0.1"/>
      <text x="90" y="18" text-anchor="middle" font-size="12" font-weight="bold" fill="#7B1FA2">考试实时监控</text>
      
      <!-- 学生状态网格 -->
      <g transform="translate(10, 30)">
        <!-- 第一排 -->
        <rect x="0" y="0" width="30" height="20" rx="3" fill="#E8F5E8" stroke="#4CAF50" stroke-width="1"/>
        <circle cx="15" cy="10" r="3" fill="#4CAF50"/>
        <text x="15" y="17" text-anchor="middle" font-size="6" fill="#2E7D32">正常</text>
        
        <rect x="35" y="0" width="30" height="20" rx="3" fill="#E8F5E8" stroke="#4CAF50" stroke-width="1"/>
        <circle cx="50" cy="10" r="3" fill="#4CAF50"/>
        <text x="50" y="17" text-anchor="middle" font-size="6" fill="#2E7D32">正常</text>
        
        <rect x="70" y="0" width="30" height="20" rx="3" fill="#FFF3E0" stroke="#FF9800" stroke-width="1"/>
        <circle cx="85" cy="10" r="3" fill="#FF9800"/>
        <text x="85" y="17" text-anchor="middle" font-size="6" fill="#F57C00">异常</text>
        
        <rect x="105" y="0" width="30" height="20" rx="3" fill="#E8F5E8" stroke="#4CAF50" stroke-width="1"/>
        <circle cx="120" cy="10" r="3" fill="#4CAF50"/>
        <text x="120" y="17" text-anchor="middle" font-size="6" fill="#2E7D32">正常</text>
        
        <rect x="140" y="0" width="30" height="20" rx="3" fill="#FFEBEE" stroke="#F44336" stroke-width="1"/>
        <circle cx="155" cy="10" r="3" fill="#F44336"/>
        <text x="155" y="17" text-anchor="middle" font-size="6" fill="#C62828">违规</text>
        
        <!-- 第二排 -->
        <rect x="0" y="25" width="30" height="20" rx="3" fill="#E8F5E8" stroke="#4CAF50" stroke-width="1"/>
        <circle cx="15" cy="35" r="3" fill="#4CAF50"/>
        <text x="15" y="42" text-anchor="middle" font-size="6" fill="#2E7D32">正常</text>
        
        <rect x="35" y="25" width="30" height="20" rx="3" fill="#E8F5E8" stroke="#4CAF50" stroke-width="1"/>
        <circle cx="50" cy="35" r="3" fill="#4CAF50"/>
        <text x="50" y="42" text-anchor="middle" font-size="6" fill="#2E7D32">正常</text>
        
        <rect x="70" y="25" width="30" height="20" rx="3" fill="#E8F5E8" stroke="#4CAF50" stroke-width="1"/>
        <circle cx="85" cy="35" r="3" fill="#4CAF50"/>
        <text x="85" y="42" text-anchor="middle" font-size="6" fill="#2E7D32">正常</text>
        
        <rect x="105" y="25" width="30" height="20" rx="3" fill="#FFF3E0" stroke="#FF9800" stroke-width="1"/>
        <circle cx="120" cy="35" r="3" fill="#FF9800"/>
        <text x="120" y="42" text-anchor="middle" font-size="6" fill="#F57C00">异常</text>
        
        <rect x="140" y="25" width="30" height="20" rx="3" fill="#E8F5E8" stroke="#4CAF50" stroke-width="1"/>
        <circle cx="155" cy="35" r="3" fill="#4CAF50"/>
        <text x="155" y="42" text-anchor="middle" font-size="6" fill="#2E7D32">正常</text>
      </g>
      
      <!-- 统计信息 -->
      <g transform="translate(10, 80)">
        <text x="0" y="10" font-size="10" fill="#333333">在线人数: 10/10</text>
        <text x="0" y="22" font-size="10" fill="#333333">正常状态: 7人</text>
        <text x="90" y="10" font-size="10" fill="#333333">异常行为: 2人</text>
        <text x="90" y="22" font-size="10" fill="#333333">违规警告: 1人</text>
      </g>
    </g>
    
    <!-- 预警面板 -->
    <g transform="translate(250, 30)">
      <rect x="0" y="0" width="120" height="120" rx="8" fill="#FFFFFF" stroke="#E0E0E0" stroke-width="2"/>
      <rect x="5" y="5" width="110" height="20" rx="4" fill="#F44336" opacity="0.1"/>
      <text x="60" y="18" text-anchor="middle" font-size="12" font-weight="bold" fill="#C62828">异常预警</text>
      
      <!-- 预警列表 -->
      <g transform="translate(10, 30)">
        <rect x="0" y="0" width="100" height="15" rx="2" fill="#FFEBEE"/>
        <circle cx="8" cy="7" r="3" fill="#F44336"/>
        <text x="15" y="10" font-size="8" fill="#C62828">学号003 疑似作弊</text>
        
        <rect x="0" y="20" width="100" height="15" rx="2" fill="#FFF3E0"/>
        <circle cx="8" cy="27" r="3" fill="#FF9800"/>
        <text x="15" y="30" font-size="8" fill="#F57C00">学号007 长时间离屏</text>
        
        <rect x="0" y="40" width="100" height="15" rx="2" fill="#FFF3E0"/>
        <circle cx="8" cy="47" r="3" fill="#FF9800"/>
        <text x="15" y="50" font-size="8" fill="#F57C00">学号009 频繁切换</text>
        
        <!-- 处理按钮 -->
        <rect x="0" y="65" width="45" height="20" rx="4" fill="#F44336"/>
        <text x="22" y="77" text-anchor="middle" font-size="8" fill="#FFFFFF">立即处理</text>
        
        <rect x="55" y="65" width="45" height="20" rx="4" fill="#FF9800"/>
        <text x="77" y="77" text-anchor="middle" font-size="8" fill="#FFFFFF">标记关注</text>
      </g>
    </g>
    
    <!-- AI 分析 -->
    <g transform="translate(100, 170)">
      <rect x="0" y="0" width="200" height="80" rx="8" fill="#FFFFFF" stroke="#E0E0E0" stroke-width="1"/>
      <rect x="5" y="5" width="190" height="20" rx="4" fill="#9C27B0" opacity="0.1"/>
      <text x="100" y="18" text-anchor="middle" font-size="12" font-weight="bold" fill="#7B1FA2">AI 行为分析</text>
      
      <!-- 分析结果 -->
      <g transform="translate(10, 30)">
        <text x="0" y="12" font-size="10" fill="#333333">• 眼动轨迹分析: 正常范围内</text>
        <text x="0" y="24" font-size="10" fill="#333333">• 答题节奏分析: 稳定</text>
        <text x="0" y="36" font-size="10" fill="#333333">• 异常行为检测: 发现2处疑点</text>
        <text x="0" y="48" font-size="10" fill="#333333">• 诚信度评估: 92%</text>
      </g>
    </g>
    
    <!-- 装饰元素 -->
    <circle cx="30" cy="100" r="3" fill="#E1BEE7" opacity="0.8"/>
    <circle cx="380" cy="80" r="4" fill="#CE93D8" opacity="0.8"/>
    
    <!-- 文字区域 -->
    <text x="200" y="280" text-anchor="middle" font-family="-apple-system, BlinkMacSystemFont, 'Segoe UI', Roboto, sans-serif" font-size="16" font-weight="600" fill="#7B1FA2">智能考试监控</text>
  </symbol>

  <!-- 学习报告 -->
  <symbol id="illustration-learning-report" viewBox="0 0 400 300">
    <defs>
      <linearGradient id="reportGrad" x1="0%" y1="0%" x2="100%" y2="100%">
        <stop offset="0%" style="stop-color:#E8F5E8;stop-opacity:1" />
        <stop offset="100%" style="stop-color:#C8E6C9;stop-opacity:0.6" />
      </linearGradient>
    </defs>
    
    <!-- 背景 -->
    <rect width="400" height="300" fill="url(#reportGrad)"/>
    
    <!-- 报告文档 -->
    <g transform="translate(60, 30)">
      <rect x="0" y="0" width="140" height="180" rx="8" fill="#FFFFFF" stroke="#E0E0E0" stroke-width="2"/>
      <rect x="5" y="5" width="130" height="25" rx="4" fill="#4CAF50" opacity="0.1"/>
      <text x="70" y="20" text-anchor="middle" font-size="12" font-weight="bold" fill="#2E7D32">学习分析报告</text>
      
      <!-- 学生信息 -->
      <g transform="translate(15, 35)">
        <circle cx="15" cy="15" r="12" fill="#E8F5E8" stroke="#4CAF50" stroke-width="2"/>
        <text x="15" y="19" text-anchor="middle" font-size="10" font-weight="bold" fill="#2E7D32">张</text>
        <text x="35" y="12" font-size="10" font-weight="bold" fill="#333333">张小明</text>
        <text x="35" y="24" font-size="8" fill="#666666">高一(3)班 | 学号: 2024001</text>
      </g>
      
      <!-- 成绩概览 -->
      <g transform="translate(15, 70)">
        <text x="0" y="12" font-size="10" font-weight="bold" fill="#333333">本月学习概览</text>
        
        <rect x="0" y="18" width="110" height="12" rx="2" fill="#F5F5F5"/>
        <text x="5" y="26" font-size="8" fill="#333333">数学</text>
        <rect x="30" y="20" width="60" height="8" rx="4" fill="#E0E0E0"/>
        <rect x="30" y="20" width="48" height="8" rx="4" fill="#4CAF50"/>
        <text x="95" y="26" font-size="8" fill="#333333">85分</text>
        
        <rect x="0" y="35" width="110" height="12" rx="2" fill="#F5F5F5"/>
        <text x="5" y="43" font-size="8" fill="#333333">语文</text>
        <rect x="30" y="37" width="60" height="8" rx="4" fill="#E0E0E0"/>
        <rect x="30" y="37" width="54" height="8" rx="4" fill="#2196F3"/>
        <text x="95" y="43" font-size="8" fill="#333333">90分</text>
        
        <rect x="0" y="52" width="110" height="12" rx="2" fill="#F5F5F5"/>
        <text x="5" y="60" font-size="8" fill="#333333">英语</text>
        <rect x="30" y="54" width="60" height="8" rx="4" fill="#E0E0E0"/>
        <rect x="30" y="54" width="42" height="8" rx="4" fill="#FF9800"/>
        <text x="95" y="60" font-size="8" fill="#333333">78分</text>
      </g>
      
      <!-- 学习建议 -->
      <g transform="translate(15, 140)">
        <text x="0" y="12" font-size="10" font-weight="bold" fill="#333333">AI 学习建议</text>
        <rect x="0" y="15" width="110" height="20" rx="4" fill="#E8F5E8" stroke="#4CAF50" stroke-width="1"/>
        <text x="5" y="23" font-size="8" fill="#2E7D32">• 数学: 加强函数练习</text>
        <text x="5" y="31" font-size="8" fill="#2E7D32">• 英语: 重点提升阅读理解</text>
      </g>
    </g>
    
    <!-- 图表区域 -->
    <g transform="translate(220, 30)">
      <rect x="0" y="0" width="150" height="120" rx="8" fill="#FFFFFF" stroke="#E0E0E0" stroke-width="2"/>
      <rect x="5" y="5" width="140" height="20" rx="4" fill="#4CAF50" opacity="0.1"/>
      <text x="75" y="18" text-anchor="middle" font-size="12" font-weight="bold" fill="#2E7D32">学习趋势分析</text>
      
      <!-- 折线图 -->
      <g transform="translate(20, 35)">
        <!-- 坐标轴 -->
        <line x1="0" y1="60" x2="110" y2="60" stroke="#E0E0E0" stroke-width="1"/>
        <line x1="0" y1="0" x2="0" y2="60" stroke="#E0E0E0" stroke-width="1"/>
        
        <!-- 数据点和线 -->
        <g stroke="#4CAF50" stroke-width="2" fill="none">
          <path d="M 10 50 L 30 40 L 50 35 L 70 30 L 90 25"/>
        </g>
        
        <g fill="#4CAF50">
          <circle cx="10" cy="50" r="2"/>
          <circle cx="30" cy="40" r="2"/>
          <circle cx="50" cy="35" r="2"/>
          <circle cx="70" cy="30" r="2"/>
          <circle cx="90" cy="25" r="2"/>
        </g>
        
        <!-- 标签 -->
        <text x="10" y="75" text-anchor="middle" font-size="8" fill="#666666">9月</text>
        <text x="30" y="75" text-anchor="middle" font-size="8" fill="#666666">10月</text>
        <text x="50" y="75" text-anchor="middle" font-size="8" fill="#666666">11月</text>
        <text x="70" y="75" text-anchor="middle" font-size="8" fill="#666666">12月</text>
        <text x="90" y="75" text-anchor="middle" font-size="8" fill="#666666">1月</text>
      </g>
    </g>
    
    <!-- 统计卡片 -->
    <g transform="translate(220, 170)">
      <!-- 学习时长 -->
      <rect x="0" y="0" width="70" height="40" rx="6" fill="#FFFFFF" stroke="#E0E0E0" stroke-width="1"/>
      <text x="35" y="15" text-anchor="middle" font-size="14" font-weight="bold" fill="#4CAF50">128h</text>
      <text x="35" y="28" text-anchor="middle" font-size="8" fill="#666666">本月学习时长</text>
      
      <!-- 完成作业 -->
      <rect x="80" y="0" width="70" height="40" rx="6" fill="#FFFFFF" stroke="#E0E0E0" stroke-width="1"/>
      <text x="115" y="15" text-anchor="middle" font-size="14" font-weight="bold" fill="#2196F3">96%</text>
      <text x="115" y="28" text-anchor="middle" font-size="8" fill="#666666">作业完成率</text>
      
      <!-- 排名 -->
      <rect x="0" y="50" width="70" height="40" rx="6" fill="#FFFFFF" stroke="#E0E0E0" stroke-width="1"/>
      <text x="35" y="65" text-anchor="middle" font-size="14" font-weight="bold" fill="#FF9800">第5名</text>
      <text x="35" y="78" text-anchor="middle" font-size="8" fill="#666666">班级排名</text>
      
      <!-- 进步幅度 -->
      <rect x="80" y="50" width="70" height="40" rx="6" fill="#FFFFFF" stroke="#E0E0E0" stroke-width="1"/>
      <text x="115" y="65" text-anchor="middle" font-size="14" font-weight="bold" fill="#9C27B0">+12</text>
      <text x="115" y="78" text-anchor="middle" font-size="8" fill="#666666">进步分数</text>
    </g>
    
    <!-- 装饰元素 -->
    <circle cx="40" cy="100" r="3" fill="#C8E6C9" opacity="0.8"/>
    <circle cx="380" cy="120" r="4" fill="#A5D6A7" opacity="0.8"/>
    
    <!-- 文字区域 -->
    <text x="200" y="280" text-anchor="middle" font-family="-apple-system, BlinkMacSystemFont, 'Segoe UI', Roboto, sans-serif" font-size="16" font-weight="600" fill="#2E7D32">个性化学习报告</text>
  </symbol>
</svg>