<!-- 智能教学助手2.0 - 功能图标库 -->
<svg xmlns="http://www.w3.org/2000/svg" style="display: none;">
  <!-- 添加图标 -->
  <symbol id="icon-add" viewBox="0 0 24 24">
    <path fill="currentColor" d="M19 13h-6v6h-2v-6H5v-2h6V5h2v6h6v2z"/>
  </symbol>

  <!-- 编辑图标 -->
  <symbol id="icon-edit" viewBox="0 0 24 24">
    <path fill="currentColor" d="M3 17.25V21h3.75L17.81 9.94l-3.75-3.75L3 17.25zM20.71 7.04c.39-.39.39-1.02 0-1.41l-2.34-2.34c-.39-.39-1.02-.39-1.41 0l-1.83 1.83 3.75 3.75 1.83-1.83z"/>
  </symbol>

  <!-- 删除图标 -->
  <symbol id="icon-delete" viewBox="0 0 24 24">
    <path fill="currentColor" d="M6 19c0 1.1.9 2 2 2h8c1.1 0 2-.9 2-2V7H6v12zM19 4h-3.5l-1-1h-5l-1 1H5v2h14V4z"/>
  </symbol>

  <!-- 保存图标 -->
  <symbol id="icon-save" viewBox="0 0 24 24">
    <path fill="currentColor" d="M17 3H5c-1.11 0-2 .9-2 2v14c0 1.1.89 2 2 2h14c1.1 0 2-.9 2-2V7l-4-4zm-5 16c-1.66 0-3-1.34-3-3s1.34-3 3-3 3 1.34 3 3-1.34 3-3 3zm3-10H5V5h10v4z"/>
  </symbol>

  <!-- 下载图标 -->
  <symbol id="icon-download" viewBox="0 0 24 24">
    <path fill="currentColor" d="M19 9h-4V3H9v6H5l7 7 7-7zM5 18v2h14v-2H5z"/>
  </symbol>

  <!-- 上传图标 -->
  <symbol id="icon-upload" viewBox="0 0 24 24">
    <path fill="currentColor" d="M14 2H6c-1.1 0-1.99.9-1.99 2L4 20c0 1.1.89 2 2 2h12c1.1 0 2-.9 2-2V8l-6-6zm2 16H8v-2h8v2zm0-4H8v-2h8v2zm-3-5V3.5L18.5 9H13z"/>
  </symbol>

  <!-- 导出图标 -->
  <symbol id="icon-export" viewBox="0 0 24 24">
    <path fill="currentColor" d="M9 3v2h6V3h2v2h2c1.1 0 2 .9 2 2v14c0 1.1-.9 2-2 2H5c-1.1 0-2-.9-2-2V7c0-1.1.9-2 2-2h2V3h2zm3 12l4-4h-3V8h-2v3H8l4 4z"/>
  </symbol>

  <!-- 导入图标 -->
  <symbol id="icon-import" viewBox="0 0 24 24">
    <path fill="currentColor" d="M9 3v2h6V3h2v2h2c1.1 0 2 .9 2 2v14c0 1.1-.9 2-2 2H5c-1.1 0-2-.9-2-2V7c0-1.1.9-2 2-2h2V3h2zm3 12l-4-4h3V8h2v3h3l-4 4z"/>
  </symbol>

  <!-- 打印图标 -->
  <symbol id="icon-print" viewBox="0 0 24 24">
    <path fill="currentColor" d="M19 8H5c-1.66 0-3 1.34-3 3v6h4v4h12v-4h4v-6c0-1.66-1.34-3-3-3zm-3 11H8v-5h8v5zm3-7c-.55 0-1-.45-1-1s.45-1 1-1 1 .45 1 1-.45 1-1 1zm-1-9H6v4h12V3z"/>
  </symbol>

  <!-- 分享图标 -->
  <symbol id="icon-share" viewBox="0 0 24 24">
    <path fill="currentColor" d="M18 16.08c-.76 0-1.44.3-1.96.77L8.91 12.7c.05-.23.09-.46.09-.7s-.04-.47-.09-.7l7.05-4.11c.54.5 1.25.81 2.04.81 1.66 0 3-1.34 3-3s-1.34-3-3-3-3 1.34-3 3c0 .24.04.47.09.7L8.04 9.81C7.5 9.31 6.79 9 6 9c-1.66 0-3 1.34-3 3s1.34 3 3 3c.79 0 1.5-.31 2.04-.81l7.12 4.16c-.05.21-.08.43-.08.65 0 1.61 1.31 2.92 2.92 2.92 1.61 0 2.92-1.31 2.92-2.92s-1.31-2.92-2.92-2.92z"/>
  </symbol>

  <!-- 复制图标 -->
  <symbol id="icon-copy" viewBox="0 0 24 24">
    <path fill="currentColor" d="M16 1H4c-1.1 0-2 .9-2 2v14h2V3h12V1zm3 4H8c-1.1 0-2 .9-2 2v14c0 1.1.9 2 2 2h11c1.1 0 2-.9 2-2V7c0-1.1-.9-2-2-2zm0 16H8V7h11v14z"/>
  </symbol>

  <!-- 粘贴图标 -->
  <symbol id="icon-paste" viewBox="0 0 24 24">
    <path fill="currentColor" d="M19 2h-4.18C14.4.84 13.3 0 12 0c-1.3 0-2.4.84-2.82 2H5c-1.1 0-2 .9-2 2v16c0 1.1.9 2 2 2h14c1.1 0 2-.9 2-2V4c0-1.1-.9-2-2-2zm-7 0c.55 0 1 .45 1 1s-.45 1-1 1-1-.45-1-1 .45-1 1-1zm7 18H5V4h2v3h10V4h2v16z"/>
  </symbol>

  <!-- 刷新图标 -->
  <symbol id="icon-refresh" viewBox="0 0 24 24">
    <path fill="currentColor" d="M17.65 6.35C16.2 4.9 14.21 4 12 4c-4.42 0-7.99 3.58-7.99 8s3.57 8 7.99 8c3.73 0 6.84-2.55 7.73-6h-2.08c-.82 2.33-3.04 4-5.65 4-3.31 0-6-2.69-6-6s2.69-6 6-6c1.66 0 3.14.69 4.22 1.78L13 11h7V4l-2.35 2.35z"/>
  </symbol>

  <!-- 筛选图标 -->
  <symbol id="icon-filter" viewBox="0 0 24 24">
    <path fill="currentColor" d="M10 18h4v-2h-4v2zM3 6v2h18V6H3zm3 7h12v-2H6v2z"/>
  </symbol>

  <!-- 排序图标 -->
  <symbol id="icon-sort" viewBox="0 0 24 24">
    <path fill="currentColor" d="M3 18h6v-2H3v2zM3 6v2h18V6H3zm0 7h12v-2H3v2z"/>
  </symbol>

  <!-- 视图图标 -->
  <symbol id="icon-view" viewBox="0 0 24 24">
    <path fill="currentColor" d="M12 4.5C7 4.5 2.73 7.61 1 12c1.73 4.39 6 7.5 11 7.5s9.27-3.11 11-7.5c-1.73-4.39-6-7.5-11-7.5zM12 17c-2.76 0-5-2.24-5-5s2.24-5 5-5 5 2.24 5 5-2.24 5-5 5zm0-8c-1.66 0-3 1.34-3 3s1.34 3 3 3 3-1.34 3-3-1.34-3-3-3z"/>
  </symbol>

  <!-- 隐藏图标 -->
  <symbol id="icon-hide" viewBox="0 0 24 24">
    <path fill="currentColor" d="M12 7c2.76 0 5 2.24 5 5 0 .65-.13 1.26-.36 1.83l2.92 2.92c1.51-1.26 2.7-2.89 3.43-4.75-1.73-4.39-6-7.5-11-7.5-1.4 0-2.74.25-3.98.7l2.16 2.16C10.74 7.13 11.35 7 12 7zM2 4.27l2.28 2.28.46.46C3.08 8.3 1.78 10.02 1 12c1.73 4.39 6 7.5 11 7.5 1.55 0 3.03-.3 4.38-.84l.42.42L19.73 22 21 20.73 3.27 3 2 4.27zM7.53 9.8l1.55 1.55c-.05.21-.08.43-.08.65 0 1.66 1.34 3 3 3 .22 0 .44-.03.65-.08l1.55 1.55c-.67.33-1.41.53-2.2.53-2.76 0-5-2.24-5-5 0-.79.2-1.53.53-2.2zm4.31-.78l3.15 3.15.02-.16c0-1.66-1.34-3-3-3l-.17.01z"/>
  </symbol>

  <!-- 全屏图标 -->
  <symbol id="icon-fullscreen" viewBox="0 0 24 24">
    <path fill="currentColor" d="M7 14H5v5h5v-2H7v-3zm-2-4h2V7h3V5H5v5zm12 7h-3v2h5v-5h-2v3zM14 5v2h3v3h2V5h-5z"/>
  </symbol>

  <!-- 退出全屏图标 -->
  <symbol id="icon-fullscreen-exit" viewBox="0 0 24 24">
    <path fill="currentColor" d="M5 16h3v3h2v-5H5v2zm3-8H5v2h5V5H8v3zm6 11h2v-3h3v-2h-5v5zm2-11V5h-2v5h5V8h-3z"/>
  </symbol>

  <!-- 播放图标 -->
  <symbol id="icon-play" viewBox="0 0 24 24">
    <path fill="currentColor" d="M8 5v14l11-7z"/>
  </symbol>

  <!-- 暂停图标 -->
  <symbol id="icon-pause" viewBox="0 0 24 24">
    <path fill="currentColor" d="M6 19h4V5H6v14zm8-14v14h4V5h-4z"/>
  </symbol>

  <!-- 停止图标 -->
  <symbol id="icon-stop" viewBox="0 0 24 24">
    <path fill="currentColor" d="M6 6h12v12H6z"/>
  </symbol>

  <!-- 录制图标 -->
  <symbol id="icon-record" viewBox="0 0 24 24">
    <circle fill="currentColor" cx="12" cy="12" r="8"/>
  </symbol>

  <!-- 麦克风图标 -->
  <symbol id="icon-mic" viewBox="0 0 24 24">
    <path fill="currentColor" d="M12 14c1.66 0 2.99-1.34 2.99-3L15 5c0-1.66-1.34-3-3-3S9 3.34 9 5v6c0 1.66 1.34 3 3 3zm5.3-3c0 3-2.54 5.1-5.3 5.1S6.7 14 6.7 11H5c0 3.41 2.72 6.23 6 6.72V21h2v-3.28c3.28-.48 6-3.3 6-6.72h-1.7z"/>
  </symbol>

  <!-- 静音图标 -->
  <symbol id="icon-mic-off" viewBox="0 0 24 24">
    <path fill="currentColor" d="M19 11h-1.7c0 .74-.16 1.43-.43 2.05l1.23 1.23c.56-.98.9-2.09.9-3.28zm-4.02.17c0-.06.02-.11.02-.17V5c0-1.66-1.34-3-3-3S9 3.34 9 5v.18l5.98 5.99zM4.27 3L3 4.27l6.01 6.01V11c0 1.66 1.33 3 2.99 3 .22 0 .44-.03.65-.08l1.66 1.66c-.71.33-1.5.52-2.31.52-2.76 0-5.3-2.1-5.3-5.1H5c0 3.41 2.72 6.23 6 6.72V21h2v-3.28c.91-.13 1.77-.45 2.54-.9L19.73 21 21 19.73 4.27 3z"/>
  </symbol>

  <!-- 摄像头图标 -->
  <symbol id="icon-camera" viewBox="0 0 24 24">
    <circle fill="currentColor" cx="12" cy="12" r="3.2"/>
    <path fill="currentColor" d="M9 2L7.17 4H4c-1.1 0-2 .9-2 2v12c0 1.1.9 2 2 2h16c1.1 0 2-.9 2-2V6c0-1.1-.9-2-2-2h-3.17L15 2H9zm3 15c-2.76 0-5-2.24-5-5s2.24-5 5-5 5 2.24 5 5-2.24 5-5 5z"/>
  </symbol>

  <!-- 关闭摄像头图标 -->
  <symbol id="icon-camera-off" viewBox="0 0 24 24">
    <path fill="currentColor" d="M21 6.5l-4 4V7c0-.55-.45-1-1-1H9.5l-2-2H15l1.83-2H9L7.17 4H4c-.55 0-1.04.22-1.41.59L1.39 3.41 2.8 2l18.38 18.38-1.41 1.41L17.5 19.5H4c-1.1 0-2-.9-2-2V6c0-.23.04-.45.11-.66L21 6.5zM14.49 15.51L9 10.02V15c0 .55.45 1 1 1h4.49z"/>
  </symbol>
</svg>